<?xml version="1.0" encoding="utf-8"?>
<!-- Generator: Adobe Illustrator 27.0.0, SVG Export Plug-In . SVG Version: 6.00 Build 0)  -->
<svg version="1.1" id="Слой_1" xmlns="http://www.w3.org/2000/svg" xmlns:xlink="http://www.w3.org/1999/xlink" x="0px" y="0px"
	 viewBox="0 0 481.4 276.4" style="enable-background:new 0 0 481.4 276.4;" xml:space="preserve">
<style type="text/css">
	.st0{fill:#0F3E54;}
	.st1{fill:#0A4158;}
	.st2{fill:#E67136;}
	.st3{fill:#E37236;}
	.st4{fill:#E57336;}
	.st5{fill:#E57237;}
	.st6{fill:#E57034;}
	.st7{fill:#E57035;}
	.st8{fill:#E47337;}
	.st9{fill:#E57135;}
	.st10{fill:#E47136;}
	.st11{fill:#E77135;}
	.st12{fill:#E47537;}
	.st13{fill:#08162E;}
	.st14{fill:#0B1128;}
	.st15{fill:#B94A1B;}
	.st16{fill:#0A182E;}
	.st17{fill:#E76C32;}
	.st18{fill:#E76B31;}
	.st19{fill:#E76C31;}
	.st20{fill:#E77336;}
	.st21{fill:#1E6681;}
	.st22{fill:#1D6580;}
	.st23{fill:#3C8198;}
	.st24{fill:#3E8299;}
	.st25{fill:#3D8198;}
	.st26{fill:#3D8299;}
	.st27{fill:#0F3C53;}
	.st28{fill:#0F3D54;}
	.st29{fill:#094058;}
	.st30{fill:#094158;}
	.st31{fill:#3F8299;}
	.st32{fill:#E67034;}
	.st33{fill:#FCF9F8;}
	.st34{fill:#FEFEFE;}
	.st35{fill:#E37437;}
	.st36{fill:#E57738;}
	.st37{fill:#FDFDFC;}
	.st38{fill:#E07135;}
</style>
<path class="st0" d="M0.7,182c-0.4-1.1-0.2-2.3-0.2-3.5c-0.1-5.9-0.1-11.8-0.2-17.7c0-5.9,2.3-8.8,7.8-10.4c6.5-1.9,13.1-3,19.8-3.8
	c7.3-0.9,14.7-1.5,22.1-1.1c9.4,0.5,18.6,1.8,27,6.5c8.6,4.8,14.5,11.6,16.6,21.5c0,0.1,0.1,0.2,0.3,0.3c0.9-5.3,1.8-10.5,2.7-15.7
	c0.7-4.4,3.5-6.7,7.9-6.7c7,0,13.9,0,20.9,0.1c2.6,0,5.2,0.3,7.5,1.7c1.3,0.8,2.3,1.7,3,3c1.4,2.5,1.1,5.2,0.8,7.8
	c-0.9,7.3-2,14.5-2.7,21.8c-0.8,8.2-1.1,16.4-0.9,24.6c0.1,5-0.3,9.9,0.8,14.9c0.5,2.3,1.5,4.1,3.5,5.2c2.3,0.1,3.2-1.4,3.7-3.2
	c1-3,1.1-6.1,1.4-9.2c1.1-11.8,1-23.6,0.7-35.4c-0.2-7.7-0.6-15.4-1.7-23c-0.6-3.9,2.2-7.6,6.1-8c8.2-0.9,16.4-0.9,24.6-0.7
	c2.9,0.1,5.1,1.6,6.8,4c0.3,0.4,0.4,1.1,1.1,1.3c0.1-0.2,0.3-0.4,0.4-0.6c1.1-3.7,3.9-5.3,7.4-5.4c9.3-0.2,18.5-0.1,27.8,0
	c3.8,0.1,6.2,2.4,7.6,5.9c3.2,7.7,6.5,15.2,10.1,22.7c0.2,0.4,0.1,1,0.9,1.1c-0.6-6.5,0-13-0.6-19.5c-0.6-6.8,2.7-10,9.2-10.2
	c7.6-0.3,15.2-0.3,22.8,0c3.6,0.2,6.4,1.7,8.1,5.1c0.2,0.3,0.5,0.6,0.8,1c0.5-0.9,0.8-1.7,1.4-2.4c1.8-2.4,4.2-3.6,7.2-3.6
	c8.1-0.1,16.2,0.1,24.3,0.4c3.7,0.1,6.8,1.8,8.5,5.4c2.9,6.2,5.9,12.4,8.9,18.5c1.1,2.3,2.3,4.5,3.6,6.9c0.7-0.8,0.2-1.5,0.2-2.2
	c0-7.2-0.1-14.4,0-21.6c0-4.2,3.3-7.4,7.5-7.4c8.1,0,16.3,0,24.4,0.1c3.9,0,7.1,1.3,9,5.3c2.4-3.9,6.3-4.3,10.1-4.6
	c8.4-0.7,16.9-1,25.3-0.8c4.5,0.1,6.8,1.6,8.4,5.9c3,8.5,5.8,17,8.7,25.7c0.7-0.3,0.7-1,1-1.5c4-8.4,8.2-16.7,12.4-25
	c2-3.9,5.2-5.4,9.3-5.2c8.1,0.4,16.3,0.7,24.4,1.4c4,0.3,7.1,2.4,8.8,6.2c0.9,1.4,0.7,2.8,0.3,4.3c-1,3.7-3.1,6.9-4.9,10.2
	c-4.3,7.7-8.3,15.6-12.5,23.3c-6.3,11.6-11.8,23.6-17.2,35.6c-0.5,1-0.7,2.1-0.7,3.3c0,9-0.6,18-1.1,27c-0.1,1.4-0.4,2.8-0.9,4.2
	c-0.9,2.3-2.4,3.7-4.9,4.1c-1.8,0.3-3.6,0.6-5.4,0.6c-5.4,0-10.8,0-16.2,0c-2.9,0-5.8-0.5-8.7-0.4c-0.9,0-1.7-0.4-2.5-0.8
	c-3.1-1.9-4-5-4.1-8.3c-0.3-9.1-0.4-18.3-0.4-27.4c0-3.5-0.7-6.7-2.3-9.9c-6.7-12.8-13.2-25.8-19.8-38.7c-0.3-0.6-0.6-1.4-1.2-1.8
	c-1-0.4-1.2-1.3-1.5-2.2c-0.4-1.3-0.9-2.5-1.9-3.8c-0.5,1-0.3,1.8-0.3,2.6c0,18.8,0.1,37.5,0,56.3c-0.1,8.4-0.5,16.9-1.2,25.3
	c-0.4,5.4-2.8,7.4-8.3,7.8c-8.8,0.6-17.6,0.2-26.5,0.4c-1.9,0-3.5-0.6-5.2-1.3c-2.2-1.7-3.5-4.1-4.7-6.6c-2.7-5.7-5.5-11.3-8.2-17
	c-0.3-0.5-0.4-1.2-1-1.5c-1.2-0.6-1.5-1.9-2.2-2.9c-0.2-0.3-0.4-0.7-0.9-0.5c-0.3,0.1-0.4,0.5-0.4,0.8c-0.1,0.7-0.1,1.4-0.1,2
	c0,6.1,0,12.3-0.4,18.4c-0.3,4.8-2.2,7-6.9,7.7c-3.3,0.5-6.7,0.5-10,0.4c-5.6-0.1-11.2,0.2-16.8,0c-1.3-0.1-2.6-0.3-3.7-1.1
	c-1-0.7-2-0.7-3.2-0.3c-3.2,1-6.5,1.4-9.9,1.4c-7.3,0-14.5,0-21.8,0c-2,0-3.8-0.3-5.4-1.6c-1.6-1.1-2.4-2.8-3.1-4.5
	c-3-6.7-6-13.4-9-20.1c-0.1-0.3-0.4-0.6-0.6-0.9c-1-0.3-1.2-1.4-1.8-2.1c-0.3-0.3-0.5-0.6-0.9-0.5c-0.4,0.1-0.4,0.6-0.5,0.9
	c-0.1,0.5,0,1,0,1.5c-0.1,6.3,0.1,12.5-0.3,18.8c-0.4,5-2.4,7.5-7.3,8.4c-1.2,0.2-2.5,0.4-3.7,0.4c-7,0-14.1,0-21.1,0
	c-2.2,0-4.5-0.1-6.3-1.7c-3-2.2-3.1-5.7-3.6-8.9c-0.1-0.4-0.1-0.7-0.1-1.1c-0.9-1.9-0.1-4-0.6-6.2c-1.6,2.2-3,4.2-4.7,6.1
	c-6.1,6.8-13.8,10.6-22.7,12.3c-7.4,1.4-15,1.5-22.5,0.8c-7.5-0.7-14.3-3.5-20.1-8.5c-3.3-2.9-5.9-6.2-8.5-9.8
	c-1.1-0.3-1.5-1.3-2-2.1c-0.7-1.2-1.2-1-1.8,0c-1.6,2.7-3.3,5.3-5.5,7.5c-7.6,7.8-17,11.7-27.7,13.4c-12,2-24.1,2.1-36.3,1.8
	c-4-0.1-7.9-0.7-11.9-1.3c-2.7-0.4-5.1-1.5-7.4-2.8c-3.4-2.6-5-6.2-4.9-10.5c0.1-3.3-0.2-6.6,0.3-9.8c0.5,1.4,0.1,2.9,0.2,4
	c0,0.5,0.3,0.2,0.1,0.3C0.5,224.9,1.4,197,0.9,171C0.8,173.5,1.3,177.7,0.7,182z"/>
<path class="st1" d="M65.5,140.5c-2.2-1.8-4.6-3.5-5.6-6.3c-1.4-6.6-0.8-13.3-1.3-20c-0.3-4.3-0.1-8.7-0.5-13
	c-0.3-26.9-0.8-53.8-0.8-80.3c-0.2,1.8,0.3,4.1-0.3,6.3c-0.3-4.6-0.6-9.3,0-13.9c0.4-3,2.3-4.8,4.9-6.1c3.8-1.9,8-2.2,12-2.8
	c5.5-0.8,11-2,16.5-2.5c5.5-0.5,11-1.2,16.5-1.7c6.4-0.6,12.9-0.6,19.4-0.1c10.1,0.8,19.8,3,28.3,8.9c3.8,2.7,7.4,5.6,9.8,9.8
	c3.5,4,4.7,8.8,5.4,13.8c1.3,8.4-0.3,16.3-4.3,23.7c-2,3.8-4.6,7.2-8.7,9.4c1.8,1.5,3.6,2.6,4.8,4.3c2.5,1.9,4.5,4.3,6.7,6.4
	c0.3,0.3,0.4,1.1,1.2,0.9c0.6-0.2,0.5-0.9,0.5-1.3c0.3-3.1,0.5-6.2,0.8-9.3c1.7-16.6,6-32.3,16.7-45.6c4.7-5.9,10.1-11.2,16.8-14.8
	c6.6-3.7,13.6-6.3,21.3-7c11.6-1.1,22.9,0.1,33.6,4.9c10,4.6,17.6,11.6,22.5,21.5c4.6,9.3,8.6,18.9,10.5,29.2
	c3.1,17.6,1.4,34.7-5.9,51.1c-2.6,5.8-6.5,10.7-10.6,15.5c-3.5,4.1-7,8.1-11.2,11.4c-6.2,4.9-13.5,7.4-21.1,9
	c-11.8,2.4-23.4,2.4-35-1.4c-7.2-2.3-13.5-6-19-11.1c-0.9-0.8-1.5-2-2.7-2.5c-4-4-7.1-8.7-10-13.5c-1.3-0.9-1.4-2.6-2.4-3.8
	c-0.5,0.7-0.6,1.5-0.8,2.2c-1.9,6.9-4.9,13.3-10.1,18.4c-4,3.8-8.8,6.1-13.9,7.8c-9.1,3.1-18.6,4.5-28.1,5.6
	c-10.7,1.2-21.5,1.1-32.2,1c-6.1-0.1-12.2-0.6-18.1-2C69.2,142.3,67.3,141.7,65.5,140.5z"/>
<path class="st1" d="M379.6,77c2.1,3.8,5,7.1,7.5,10.6c7.8,11.2,15.7,22.4,23.5,33.6c0.3,0.4,0.5,0.8,0.8,1.2c1.3,2,0.8,4.1,0,6.1
	c-1.5,3.7-4.2,6.2-8.2,7.3c-4.4,1.1-8.9,2-13.3,2.9c-7.5,1.5-14.9,3.4-22.5,4.5c-2.8,0.4-5.6,0.1-7.9-1.9c-2-1.3-3.4-3.1-4.4-5.3
	c-3-6.5-6.1-13-9.1-19.5c-0.6-0.4-0.9-1-1.3-1.6c-1-1.7-1.3-1.7-2.2,0.1c-1.1,2-2.1,4.1-3.2,6.1c-2.1,3.6-4.1,7.3-6.1,10.9
	c-2.9,5.3-6.8,9.4-13.3,9.8c-4.4,0.3-8.8,0.4-13.2,0c-8.1-0.7-16-2.3-23.8-4.3c-1.6-0.4-3.2-1-4.5-2.1c-1.9-1.6-3.2-3.4-3.3-6
	c-0.5-1.3,0.1-2.4,0.6-3.5c2-4.1,4.8-7.6,7.3-11.4c2.7-4.1,5.9-8,8.5-12.2c0.4-0.6,0.7-1.2,1.5-1.3c4.6-7.3,9.3-14.6,13.9-21.9
	c1.9-3,3.8-6,5.7-8.9c0.7-1,0.8-1.8,0-2.9c-9.4-13.9-18.8-27.9-28.1-41.8c-1.4-2.1-2.8-4.2-4-6.5c-2.7-5.1-0.3-10.6,5.2-12.3
	c3-1,6.2-1.2,9.3-1.4c8.8-0.5,17.5-1.8,26.2-2.8c2.9-0.3,5.8-0.5,8.7,0.1c3.7,0.7,6.2,2.9,7.7,6.3c2.4,5.4,4.8,10.8,7.3,16.2
	c0.2,0.5,0.3,1.4,1,1.4c0.7,0,0.9-0.8,1.2-1.3c3.3-5.7,6.6-11.4,9.8-17.1c0.5-0.8,0.9-1.6,1.4-2.4c1.9-3.3,4.6-4.8,8.4-4.7
	c5.7,0.1,11.2,1.3,16.7,2.3c6.5,1.1,12.9,2.3,19.3,3.7c4.4,0.9,8,2.9,10.2,7c0.9,2.2,0.6,4.3-0.6,6.2c-3.1,5-6.6,9.8-10,14.6
	c-5.8,8.5-11.6,16.9-17.1,25.5c-2.3,3.6-4.9,7-7.3,10.6c-0.9,1.3-1.1,2.4,0,3.7C379,75.2,379.2,76.1,379.6,77z"/>
<path class="st2" d="M403.2,269c9.3,0.8,18.6,0.7,27.9,0.7c1.5,0,3.1-0.2,4.6-0.4c2.8-0.5,4.6-2.3,5.1-5.2c0.4-2.8,0.7-5.7,0.8-8.5
	c0.2-7.6,0.9-15.1,0.8-22.7c0-0.4,0.1-0.9,0.3-1.2c6.1-13.3,12.2-26.5,19.2-39.4c4.6-8.5,9.3-17,13.8-25.5c1.5-2.8,2.8-5.7,2.1-9
	c4.3,4.2,4.1,7.5,1.5,12.4c-6.6,12.3-13.3,24.5-19.7,36.9c-4.2,8.1-8,16.5-12,24.7c-0.8,1.7-1.2,3.4-1.3,5.2
	c-0.5,6.9-0.8,13.8-1.2,20.6c-0.2,2.6-0.4,5.2-0.6,7.8c-0.5,5.1-3,6.9-8.2,8.2c-1.5,0.4-3.1,0.4-4.6,0.4c-6.6,0-13.2,0.1-19.8-0.4
	C408.6,273.1,405.5,271.9,403.2,269z"/>
<path class="st3" d="M293.1,100.9c-5.1,7.7-10.8,15.1-15.8,22.9c-1.1,1.7-1.9,3.5-2.1,5.5c-2.3,2.2-4.2,4.7-6.7,6.7
	c-6.3,5-13.6,7.7-21.3,9.5c-5.6,1.3-11.3,1.9-17.1,1.9c-11.1,0-21-3.5-30.2-9.3c-4.8-3-9.2-6.6-12.8-10.9c1.9,0.6,3,2.2,4.3,3.4
	c7.9,6.7,17,10.5,27.2,11.9c14.2,2,27.9,0.1,40.8-6.4c5.7-2.9,9.9-7.4,14-12c4.1-4.6,7.9-9.4,11-14.7c4.5-7.7,6.7-16.2,8.1-24.9
	c1.1-7.1,1.5-14.3,0.7-21.5c-1-9.8-3.5-19.2-7.5-28.2c-1.3-2.9-2.8-5.7-3.6-8.7c4,6.4,7.1,13.2,9.8,20.3c3.4,9.2,5.3,18.7,5.1,28.5
	c-0.2,8.1-1.3,16.1-3.3,24C293.3,99.4,293.2,100.1,293.1,100.9z"/>
<path class="st4" d="M65.5,140.5c3.7,1.1,7.3,2.2,11.1,2.7c6.4,0.8,12.7,1.1,19.1,1.1c7.6-0.1,15.1,0,22.7-0.7
	c9.9-1,19.8-2.3,29.3-5.3c5.9-1.9,11.6-4.4,16.1-9c5.2-5.4,7.8-11.9,9.7-19c0.2-0.7,0.4-1.4,0.7-2.7c1,2.2,1.8,4.1,2.7,5.9
	c-0.7,2.1-1.4,4.2-2,6.3c-3.5,11.8-12,18.5-23.3,22.2c-10.8,3.5-21.9,5-33.2,6c-7.9,0.7-15.8,1-23.6,0.6c-7-0.3-14.1-0.5-20.9-3
	C70.8,144.6,67.6,143.4,65.5,140.5z"/>
<path class="st5" d="M330.6,267.8c10.7,1.4,21.4,0.6,32.2,0.3c4.8-0.1,6.9-2.5,7.2-7.6c1.4-19.4,1.1-38.9,1.1-58.3
	c0-8.1,0-16.3,0-24.4c0-0.4,0-0.9,0-1.3c0-0.4,0.1-1,0.6-1.1c0.5-0.1,0.7,0.4,0.9,0.8c0.9,2.2,1.9,4.4,2.8,6.6
	c-0.8,0.4-0.4,1.2-0.6,1.7c-0.2,0.5-0.1,1-0.1,1.5c0,18.3,0,36.6,0,54.9c0,0.5-0.1,1,0.1,1.5c-0.1,7.6-0.3,15.1-1,22.7
	c-0.4,4.5-4.5,6.9-7.7,7.2c-9.2,0.8-18.4,0.8-27.5,0C335.4,272,333,269.9,330.6,267.8z"/>
<path class="st6" d="M235,267.2c2.4,1,4.9,1.1,7.5,1c6.7-0.1,13.3,0,20-0.1c3.7,0,7.3-0.3,10.7-1.8c0.5-0.2,0.9-0.4,1.4,0.1
	c2.2,2.2,5,2,7.7,2c6.1,0,12.2-0.2,18.3-0.2c2.5,0,5-0.3,7.4-0.8c2.5-0.5,4.1-3.2,4.3-6.7c0.4-6.6,0.3-13.3,0.5-19.9
	c0-0.9-0.4-2.3,0.7-2.6c1.1-0.3,1.5,1,2,1.9c0.4,0.9,0.9,1.8,1.4,2.6c-0.5,0.6-0.4,1.3-0.4,2c0,5.5,0,11.1-0.1,16.6
	c-0.1,3.2-0.4,6.4-3.3,8.7c-1.9,1.5-4.1,2.1-6.4,2.2c-7.7,0.6-15.5,0.8-23.3,0.1c-2-0.2-3.6-1.2-5.2-2.3c-0.6-0.4-0.7-0.5-1.4-0.1
	c-2.6,1.5-5.4,2.5-8.4,2.4c-7.1,0-14.2-0.1-21.3,0.1C242,272.5,238,271.1,235,267.2z"/>
<path class="st7" d="M4.9,268.6c2.3,0.4,4.4,1.8,6.7,2.2c6.9,1.1,13.9,1.5,21,1.6c10.6,0.2,21.1-0.6,31.5-2.7
	c13.1-2.7,23.5-9.3,30.1-21.3c0.1-0.3,0.4-0.5,0.6-0.8c1,1.5,1.9,3,2.8,4.5c-1.8,2.4-3,5.1-4.9,7.4c-5.9,7-13.5,11.1-22.2,13.5
	c-8.5,2.3-17.2,2.8-25.9,3.1c-6.3,0.3-12.7,0.4-19-0.1c-4.4-0.3-8.7-0.9-12.9-2.3C9.5,272.7,7.2,270.8,4.9,268.6z"/>
<path class="st8" d="M278.4,135.3c9.1,3.3,18.6,4.9,28.2,5.9c4.4,0.4,9,0.3,13.4,0c5.5-0.3,9.3-3.5,11.9-8.1
	c3.2-5.7,6.4-11.5,9.5-17.2c0.7-1.2,1.3-2.5,2.2-4c0.9,1.7,2,2.9,2.4,4.5c-1.4,1.6-2,3.7-2.9,5.6c-2.7,5.5-5.4,11-8.4,16.3
	c-2.6,4.7-6.9,6.4-11.7,7.1c-8.3,1.2-16.4,0.1-24.5-1.6c-5.3-1.1-10.6-2.3-15.5-4.9C281.3,138,279.7,136.8,278.4,135.3z"/>
<path class="st3" d="M379.6,77c-1.2-1-1.7-2.5-2.7-3.7c-0.6-0.6,0.1-1.3,0.5-1.8C388,56.1,398.1,40.3,408.9,25c0.7-1,1.3-2.1,2.1-3
	c2-2.4,2.5-5.2,2.3-8.2c1.4,1.2,2.2,2.8,3,4.4c0.8,1.6,0.1,3-0.7,4.4c-1.8,3.4-4.2,6.4-6.3,9.6c-9,13.6-18.1,27.1-27.1,40.7
	C381.4,74.3,380.5,75.6,379.6,77z"/>
<path class="st7" d="M106,261.8c0.9,0.1,1.6,0.7,2.2,1.2c7.8,5.7,16.7,7.4,26.2,7.1c6-0.2,12-0.4,17.9-2c9.8-2.6,17.2-8.3,22.8-16.6
	c0.4-0.5,0.6-1.2,1.5-1.5c0,2.5,0,4.8,0,7.2c-6,8.5-14.5,13.5-24.5,15.4c-9.6,1.9-19.3,2.4-28.9-0.5
	C116.5,270.3,110.9,266.7,106,261.8z"/>
<path class="st9" d="M137.4,230.4c-2.1-0.3-3.2-1.3-3.7-3.5c-1.3-5.1-1.2-10.3-1.2-15.5c0-8.3,0.1-16.6,0.9-24.9
	c0.7-7.3,1.7-14.5,2.7-21.7c0.4-2.9,0.5-5.8-0.1-8.7c4.3,3.8,4.6,8.5,3.7,13.8c-1.3,7.9-2.1,16-2.7,24c-0.6,8.6-0.7,17.1-0.6,25.7
	C136.4,223.2,136.9,226.8,137.4,230.4z"/>
<path class="st10" d="M359.5,141.3c5.3,2.7,10.7,0.9,15.9-0.1c9.1-1.8,18.2-3.9,27.3-5.8c4.3-0.9,8.6-4.7,8.9-10.3
	c0.1-0.8-0.2-1.7-0.3-2.6c1.4,1.1,2.3,2.6,3.2,4.1c1.4,2.4,0.5,6.2-1.9,8.9c-2.4,2.7-5.7,3.9-9.1,4.7c-9.8,2.4-19.7,4.3-29.6,5.9
	C368.5,146.9,363.2,146.2,359.5,141.3z"/>
<path class="st11" d="M180.2,267.4c2.9,1.1,5.9,1.2,9,1.1c6.2-0.1,12.3,0,18.5,0c1.5,0,3.1-0.2,4.6-0.5c3.8-0.8,5.5-3.2,5.8-7.5
	c0.5-6.8,0.3-13.7,0.4-20.5c0-0.7-0.3-1.7,0.6-2c0.9-0.3,1.5,0.5,1.9,1.2c0.5,0.8,0.9,1.6,1.3,2.5c0,6.8,0,13.5-0.1,20.3
	c0,1.4-0.2,2.7-0.4,4.1c-0.7,3.3-3.7,5.8-7.5,6.3c-6,0.7-12,0.3-18.1,0.4c-3.9,0-7.8-0.1-11.5-1.6
	C182.8,270.4,181.2,269.2,180.2,267.4z"/>
<path class="st12" d="M161.7,70.2c-1.9-1.4-3.7-2.8-5.6-4.2c8.7-5.6,12.1-14,13.4-23.6c1.1-8.4-0.8-16.2-5-23.5
	c3,2.7,4.9,6.1,6.5,9.8c3.9,9.2,2.8,18.3-0.4,27.5c-1.7,4.9-5.1,8.5-8.3,12.4C161.8,69,161.2,69.4,161.7,70.2z"/>
<path class="st13" d="M57.1,27.2c0-2.7,0-5.4,0-8.2c0.1,0,0.3,0,0.4,0c0,0.6,0,1.2,0,1.8c0,7.8-0.3,15.5,0.1,23.3
	c0.5,11.5-0.1,23,0.4,34.4c0.3,7.6,0.2,15.3,0.3,22.9c0,0-0.1,0.1-0.1,0.1c0,0-0.2-0.1-0.2-0.1c-0.2-13.2-0.4-26.5-0.6-39.7
	C57.3,50.2,57.2,38.7,57.1,27.2z"/>
<path class="st14" d="M0.7,182c0-4.5,0-8.9,0-13.4c0.4,28.6,0.6,57.1-0.4,85.7c0-2,0-3.9,0-5.9c0-6.3,0.1-12.7,0.1-19
	c0.3-2.5-0.1-5,0.2-7.5C0.7,208.6,0.7,195.3,0.7,182z"/>
<path class="st15" d="M374.8,242.4c-0.5-0.6-0.3-1.3-0.3-2c0-18,0-36.1,0-54.1c0-0.6-0.2-1.3,0.3-1.8c0,7,0.1,14.1,0.1,21.1
	C374.9,217.9,374.8,230.2,374.8,242.4z"/>
<path class="st16" d="M58.3,101.4c0.4,0.3,0.4,0.8,0.4,1.2c-0.2,5.4,0.2,10.8,0.5,16.2c0.3,4.9-0.3,9.8,1,14.6
	c0.1,0.3-0.1,0.6-0.2,0.9c-1-2-1.1-4.2-1.2-6.3c-0.3-7.2-0.4-14.4-0.5-21.7C58,104.6,57.9,103,58.3,101.4L58.3,101.4z"/>
<path class="st0" d="M0.7,221.8c0.1,2.5,0.4,5-0.2,7.5C0.4,226.8,0.4,224.3,0.7,221.8z"/>
<path class="st1" d="M58.3,101.4c0,1.6,0,3.3-0.1,4.9c-0.4-1.6-0.3-3.2-0.2-4.9C58.1,101.4,58.2,101.4,58.3,101.4z"/>
<path class="st17" d="M36.1,264.8c-7.7,0.3-15.3-0.3-22.8-1.5c-4.2-0.7-5.5-2.3-5.5-6.3c0.2-13.6,0.9-27.2,1.1-40.8
	c0.3-15.5-0.2-31-0.5-46.4c-0.1-3.3-0.2-6.6-0.3-9.9c-0.1-1.5,0.5-2.2,2-2.5c9.6-2.5,19.4-4.4,29.2-5c10.4-0.7,20.7-0.5,30.5,3.8
	c9.1,4,15.1,10.5,16.5,20.4c1.4,9.5-1.7,19.3-10.9,25.1c-0.5,0.3-1.1,0.6-1.6,1c-0.5,0.3-1.2,0.5-1.1,1.3c0.1,0.7,0.7,1,1.3,1.3
	c5.5,2.5,10,6.3,13,11.6c4.3,7.6,4.2,15.7,1.5,23.7c-3.1,9.2-9.5,15.4-18.3,19.2c-7.1,3-14.5,4.3-22.2,4.9
	C44.2,264.8,40.1,264.7,36.1,264.8z"/>
<path class="st18" d="M242.9,218c0-2.9-0.1-5.9,0-8.8c0.3-11.4-0.3-22.7-0.3-34.1c0-5.1-0.5-10.3-0.8-15.4c-0.1-1.3,0.3-2,1.8-2
	c7.2,0,14.4,0,21.6,0c1.6,0,2.4,0.6,2.6,2.4c0.2,2.1,0.3,4.2,0.3,6.3c0.2,15.5,0.1,31.1,0.5,46.6c0.4,14.7-0.2,29.3-0.1,44
	c0,1.6-0.5,2.5-2.3,2.6c-7.5,0-14.9,0-22.4,0.4c-3.5,0.1-5.4-1.2-6.8-4.3c-3.2-7-6.6-13.9-10-20.7c-4.4-8.7-8.4-17.6-12.3-26.6
	c-0.9-2.1-2-4.1-3.2-6.6c-0.8,2.7-0.8,4.9-0.8,7c-0.2,8.9-0.2,17.9-0.5,26.8c-0.3,7.1-0.2,14.3-0.3,21.4c0,2.6-0.3,3.2-2.9,3.2
	c-7,0.1-13.9,0.1-20.9,0c-1.3,0-2-0.6-2-2.1c0.3-6.8,0.5-13.7,0.7-20.5c0.2-5.3,0.3-10.6,0.5-15.8c0.3-10.2,0.7-20.4,1.1-30.5
	c0.2-6.2,0.1-12.4,0.5-18.6c0.3-4,0-7.9,0.6-11.9c0.3-1.8,1.2-2.6,3-2.6c7.7,0,15.3-0.1,23,0c1.2,0,2.4,0.2,3,1.7
	c3.8,9.9,8.5,19.4,12.8,29c3.7,8.4,7.4,16.8,11.1,25.1c0.6,1.4,1.2,2.9,2.2,4.1C242.6,218.1,242.7,218.1,242.9,218z"/>
<path class="st18" d="M337.8,218.6c0-3.8,0-7.7,0-11.6c-0.1-10.1-0.2-20.3-0.3-30.4c-0.1-5.3-0.3-10.7-0.4-16c0-2.2,0.3-2.5,2.5-2.5
	c7.3,0.1,14.6,0.2,21.8,0.3c1.4,0,2,0.5,1.9,2c-1.1,30.1,0.5,60.2-0.1,90.3c0,2.5-0.2,5-0.3,7.4c-0.1,1.3-0.6,1.9-1.9,1.9
	c-7.8,0.1-15.5,0.2-23.3,0.3c-1.4,0-2.5-0.5-3.2-1.9c-2.8-5.6-5.7-11.1-8.5-16.7c-6-11.9-12-23.9-18-35.8c-0.1-0.2-0.2-0.5-0.4-0.6
	c-0.3-0.4-0.5-1-1.1-0.9c-0.6,0.1-0.5,0.9-0.5,1.3c-0.2,4-0.5,8.1-0.6,12.1c-0.2,13.1-0.3,26.1-0.5,39.2c0,2.6-0.1,2.6-2.7,2.7
	c-6.7,0.4-13.4,0.4-20.1,0.4c-3.1,0-3.3-0.2-3.2-3.3c0.4-16.5,0.8-32.9,1.3-49.4c0.3-8.7,0.4-17.4,0.7-26.1c0.3-6.9,0-13.8,0.6-20.7
	c0.1-1.6,0.7-2.3,2.4-2.3c7,0.1,13.9,0.1,20.9,0.2c2.5,0,4.4,1.3,5.5,3.5c4.5,9.6,9,19.1,13.6,28.7c4.4,9.2,8.4,18.6,13.4,27.5
	C337.2,218.5,337.3,218.7,337.8,218.6z"/>
<path class="st17" d="M176,202.5c0.3,11.2,0.9,22.4-2.4,33.3c-4.3,14.4-14.1,23.2-28.9,26c-8.7,1.6-17.5,1.7-25.8-1.8
	c-11.1-4.7-17.4-13.4-19.2-25.2c-1.4-8.8-0.8-17.6-0.5-26.4c0.3-6.9,0.9-13.9,1.6-20.8c0.9-8.7,1.5-17.4,2.9-26
	c0.4-2.3,0.9-2.6,3.2-2.7c6.2,0,12.3,0,18.5,0c2.8,0,3,0.4,2.7,3.2c-0.8,6.7-1.5,13.3-2,20c-0.8,9.9-1.3,19.8-1.7,29.7
	c-0.2,5.2-0.2,10.4,1.1,15.5c1.6,6.1,5.9,9.7,11.7,9.9c5.4,0.1,9.5-2.8,11.5-7.7c1.5-3.7,1.6-7.7,1.7-11.5c0.2-10,0.8-20,0.4-30
	c-0.3-9-0.5-18-2.1-26.9c-0.2-1.1,0-1.8,1.4-1.8c6.2,0.1,12.4-0.2,18.7,0.3c3.7,0.3,4.9,1.6,5.3,5.3c1.4,11.7,1.7,23.5,1.9,35.3
	C176,200.9,176,201.7,176,202.5z"/>
<path class="st19" d="M421.6,203.7c3.5-7.5,6.7-14.5,10-21.5c3.4-7.2,6.8-14.4,10.2-21.7c0.7-1.6,1.8-2.1,3.6-2
	c7.4,0.3,14.8,0.2,22.2,1c2.4,0.3,2.8,0.9,1.6,3.1c-2.4,4.5-4.9,8.9-7.4,13.3c-7.5,14-14.9,28-21.4,42.5c-1.4,3.2-3.4,6.1-4.6,9.3
	c-0.3,0.8-0.5,1.7-0.5,2.5c0.2,9.4-0.3,18.8-0.4,28.2c0,2.2-0.4,2.6-2.6,2.6c-7.3,0-14.6,0-21.8,0c-2.3,0-2.7-0.4-2.6-2.7
	c0.2-9.5-0.1-19-0.1-28.5c0-2.5-1.5-4.4-2.6-6.5c-5.9-11.4-11.8-22.9-17.4-34.5c-3.9-7.9-8-15.6-11.4-23.7c-1.6-3.8,0-6.7,4.2-7
	c7.8-0.5,15.6-0.8,23.4-1.1c0.9,0,1.4,0.1,1.7,1.1c2.6,8.3,5.2,16.6,8.1,24.8c2.2,6.4,4.2,12.8,7,18.9
	C421,202.3,421.2,202.8,421.6,203.7z"/>
<path class="st20" d="M91.6,210.2c-2-2.4-3.7-4.6-5.9-6.2c-0.5-0.4-0.2-0.7,0.2-1.1c2.4-2.5,4.3-5.4,5.6-8.7c0.2-0.4,0.2-1.1,0.9-1
	c0.7,0.1,0.6,0.8,0.6,1.4c-0.1,2.4-0.1,4.9-0.5,7.2C92.1,204.5,92.6,207.2,91.6,210.2z"/>
<path class="st21" d="M144,66.3c0,0.7-0.1,1.3,0.7,1.7c2.8,1.6,5.5,3.2,8.1,5.1c7.9,5.6,12.6,13.1,13.8,22.8
	c1.1,9.1-0.9,17.3-6.1,24.8c-1.8,2.6-4.4,4.4-7,6.1c-5.1,3.2-10.5,5.5-16.6,6.3c-7.1,0.9-14.2,1.4-21.3,1.9c-4.4,0.3-8.7,0-13,0.3
	c-5.8,0.4-11.6-0.3-17.5-0.1c-0.5,0-1.1,0.1-1.6-0.3c-3.3-0.6-6.7-0.6-10.1-1.1c-1.6-0.2-2.4-0.9-2.5-2.4c-0.1-0.8-0.3-1.6-0.3-2.4
	c0.2-7.7-0.2-15.4-0.4-23.1c-0.2-7.1-0.2-14.3-0.5-21.4c-0.2-5,0-10.1-0.3-15.1c-0.7-11.6-0.4-23.2-1-34.8c-0.2-3.4,0-6.8,0-10.3
	c0-1.4-0.1-2.9-0.3-4.3c-0.3-3,0.8-4.7,3.8-5.2c7.6-1.5,15.1-3.4,22.8-3.9c7.6-0.5,15.2-1.5,22.8-1.7c7.4-0.2,14.6,0.3,21.8,2
	c3.4,0.8,6.8,1.9,9.9,3.6c6.2,4.2,10,10.1,11.6,17.3c1.8,8.1,0.1,15.6-4.6,22.4c0,0.1-0.1,0.1-0.1,0.2"/>
<path class="st22" d="M260.6,14.1c6.9,5,12.2,11.2,16,19c4.2,8.7,7,17.7,8.5,27.2c0.9,5.8,0.8,11.6,0.2,17.4
	c-0.5,5.3-1.5,10.4-3,15.5c-1.4,4.8-3.5,9.2-5.9,13.6c-3,5.5-6.8,10.4-11.4,14.6c-5.6,5.1-11.9,8.9-19.2,11
	c-6.1,1.8-12.4,2.6-18.6,2.6c-10.6-0.1-20.4-3-29-9.5c-0.1-0.1-0.2-0.3-0.4-0.4c-0.6-1.1-1.6-1.8-2.4-2.7c-3.9-4.4-7.6-9-9.6-14.6
	c-2-5.8-3.6-11.7-3.9-18c-0.2-3.8-0.4-7.6-0.3-11.4c0.5-12.3,2-24.4,7-35.8c1.8-4.1,4-8,6.7-11.6c0.9-1.2,1.9-2.5,2.7-3.8
	c1.8-2.9,4.3-5.1,7.2-6.9c1.1-0.7,2.1-1.5,3.1-2.4c4.3-3.8,9.6-5.7,15-7.2c7-2,14.1-1.5,21.3-1.2C250.5,9.5,255.5,11.8,260.6,14.1z"
	/>
<path class="st23" d="M149.4,14.8c-1.5-0.1-2.9-0.8-4.4-1.3c-3.1-1-6.1-1.9-9.2-2.6c-2.8-0.6-5.7-0.5-8.5-1c-4.8-0.8-9.7,0-14.5,0.1
	c-4.6,0.1-9.2,0.7-13.8,1.3c-2.8,0.4-5.7,0.4-8.5,0.8c-3.1,0.4-6,1-9,1.7c-3,0.7-6.2,1-9.3,1.7c-2.9,0.6-3.9,2-3.4,4.9
	c0.2,1.1,0.3,2.2,0.3,3.3c0.1,9.4,0.1,18.9,0.5,28.3c0.2,4.4-0.1,8.8,0.3,13.2c0.5,5.4-0.1,10.8,0.4,16.2c0.5,5.5,0.1,11.1,0.3,16.6
	c0.5,10.5,0.7,21.1,0.7,31.6c0,1,0.2,2,0.4,2.9c0.1,0.8,0.6,0.9,1.3,1.1c3.7,0.7,7.6,0.7,11.3,1.2c0,0-0.1,0.2-0.1,0.2
	c-0.2,0.1-0.4,0.1-0.6,0.1c-4.2,0-8.4-0.6-12.6-1.1c-1.8-0.3-2.7-1.4-3-3.1c-0.2-1.1-0.3-2.2-0.4-3.3c-0.2-6-0.3-11.9-0.5-17.9
	c-0.4-9.7-0.5-19.4-0.8-29.1c-0.2-6.1-0.1-12.2-0.3-18.3c-0.4-14.4-0.7-28.7-0.8-43.1c0-1.4-0.2-2.8,0-4.3c0.2-1.4,0.9-2,2.2-2.3
	c7.9-1.8,15.9-3.3,24-4.2c10.6-1.2,21.3-2.4,31.9-1.7c8,0.5,15.8,2,22.8,6C147.3,13.3,148.3,14.1,149.4,14.8z"/>
<path class="st24" d="M197.9,124.9c-9.2-7.3-15.1-16.7-17.7-28.1c-2-8.8-2-17.8-1.4-26.9c0.7-10.4,3.3-20.3,7.2-29.9
	c3-7.3,7.6-13.5,12.8-19.3c7.6-8.4,17-13.1,28.3-14.2c8-0.8,15.9-0.9,23.5,2.2c3.5,1.4,6.9,3.2,10,5.3c-0.2,0.3-0.5,0.2-0.8,0.1
	c-3.3-1.8-6.9-2.9-10.5-3.8c-4.1-1-8.5-0.8-12.7-0.9c-7.3-0.2-14.2,1.4-20.9,4.3c-3,1.3-5.6,3.1-8,5.3c-1.3,1.2-3,2-4.4,3.1
	c-2.8,2.2-4.6,5.3-6.8,8.1c-7.4,9.6-11.1,20.7-12.8,32.6c-1,7.2-1.6,14.4-1.4,21.7c0.2,6.4,1,12.7,2.8,18.8c1.2,4,3,7.7,5,11.3"/>
<path class="st22" d="M348,98.4c-0.9-0.9-1-2.2-1.8-3.2c-1.3-1.7-1.9-1.7-2.9,0.2c-5,9.4-10.5,18.6-15.8,27.8
	c-1.2,2.1-2.3,4.3-3.3,6.4c-1,2.1-2.5,2.9-4.8,3.2c-6.8,0.8-13.5-0.2-20.1-1.1c-3.1-0.4-6.2-0.4-9.2-1.1c-0.9-0.4-1.8-0.5-2.7-0.6
	c-1.4-0.1-1.3-0.7-0.7-1.5c1.6-2.1,2.8-4.5,4.5-6.6c3.8-4.8,6.8-10.3,10.6-15.1c4.2-5.4,7.8-11.2,12.1-16.6c1.4-1.7,2.3-3.8,3.6-5.7
	c2.5-3.8,5.5-7.4,7.8-11.4c1-1.8,0.9-3.3,0.1-5.1c-3.1-7.1-8-13.1-12.4-19.4c-2.4-3.4-4.6-6.9-6.9-10.4c-2.9-4.5-6.3-8.7-9-13.3
	c-1.3-2.2-2.8-4.4-3.8-6.8c-0.6-1.4,0-2.2,1.5-2.2c3.6,0.2,7-0.8,10.5-1.1c5.6-0.5,11.1-0.9,16.7-1.6c2-0.3,4-0.5,5.9-0.9
	c1.5-0.4,2.7-0.1,3.5,1.4c1.7,2.4,2.5,5.2,3.7,7.9c1.5,3.4,3.5,6.5,4.7,10c1.2,3.3,2.7,6.5,4.1,9.7c0.2,0.4,0.5,0.9,0.8,1.3
	c0.8,1.2,0.8,1.1,1.6,0.2c0.4-0.4,1.2-0.5,1.9-0.7c0.8-0.3,1.1-0.8,1.8-1c1.4-0.5,0.7-0.8,3-2.3c4.4-8.7,10.2-16.1,15-24.6
	c0.3-0.5,0.6-1.1,0.9-1.6c0.6-1.1,1.5-1.4,2.8-1.3c2.9,0.2,5.6,0.9,8.5,1.3c5.5,0.8,10.9,1.7,16.3,3.1c2.2,0.6,4.2,0.3,5.9-1.1
	c1,0,2.1-0.2,2.7,1.1c0.7,1.4-0.4,1.9-1,2.7c-3.7,4.3-7,9-10.3,13.7c-8.3,11.5-16.5,22.9-24.8,34.4c-0.6,0.9-1.4,1.6-1.9,2.5
	c-0.7,1.2-0.8,2.5,0,3.9c2.5,4.5,6.1,8.3,8.9,12.6c3.4,5.3,7.1,10.5,10.6,15.7c4.1,6.2,8.2,12.4,12.3,18.6c1,1.5,1.8,3.1,2.5,4.8
	c0.9,1.9,0.3,3-1.7,3.4c-4.6,1.1-9.3,2.1-14,3c-5.5,1.1-10.9,2.1-16.4,3.2c-1.2,0.2-2.3,0.4-3.4-0.1c0.1-0.2,0.6-0.2,0.5-0.4
	c-4.6-10.9-10.1-21.5-14.6-32.4c-0.1-0.3-0.3-0.6-0.4-0.8C350.5,98.6,349.6,98,348,98.4z"/>
<path class="st24" d="M331.2,13.7c-1.1-1.1-2.2-1.1-3.7-0.8c-5.8,1-11.6,1.6-17.5,2c-4.4,0.3-8.8,1.1-13.2,1.6
	c-0.4,0-0.7,0.2-1.1,0.1c-0.8-0.1-1.7-0.7-2.2,0.1c-0.6,0.8,0.2,1.7,0.6,2.3c2.9,5,5.8,10.1,9.4,14.7c2.5,3.2,4.4,6.7,6.7,10.1
	c2.8,4,5.8,7.9,8.5,12c1.9,2.8,4.2,5.4,5.6,8.5c0.9,1.8,1.8,3.7,2.3,5.7c0.2,0.8,0,1.5-0.4,2.3c-2.8,5.1-6.6,9.6-9.8,14.5
	c-5,7.7-10.6,15-15.9,22.4c-2.5,3.5-4.9,7.2-7.3,10.8c-2.2,3.2-4.4,6.4-6.8,9.7c1.5,0.2,2.7,0.4,4,0.6c0,0,0.1,0.1,0.1,0.1
	c-0.1,0.1-0.3,0.2-0.4,0.3c-1.9-0.2-3.8-0.3-5.7-0.9c-1.4-0.4-1.9-1.1-0.9-2.6c3.6-5,7.2-10,10.7-15c5.6-8.1,11-16.2,16.6-24.3
	c3.9-5.6,7.8-11.2,11.9-16.7c1.2-1.6,1.2-2.8,0.1-4.5c-4.1-6.2-8.7-12-12.9-18c-6.5-9.3-12.6-18.9-18.9-28.4
	c-0.7-1.1-1.5-2.1-2.2-3.2c-1.2-1.8-0.7-3.2,1.5-3.6c2.4-0.4,4.9-0.5,7.4-0.8c6.7-0.7,13.4-1.4,20.1-2.2c2.8-0.3,5.7-0.7,8.5-0.8
	c4.1-0.2,3.7,0.5,4.5,2.8C330.9,12.8,331.1,13.2,331.2,13.7z"/>
<path class="st25" d="M345.3,43.4c2.8-3.7,7.1-9.4,9.3-13.4c3.8-6.5,7.4-13.1,11-19.6c0.9-1.7,2.2-2.1,4-1.9
	c5.5,0.7,11,1.9,16.5,2.6c5,0.7,9.9,1.8,14.9,2.9c0.4,0.1,0.7,0.2,1,0.4c-0.6,1.9-2.3,2.2-3.8,1.9c-4.7-0.8-9.3-2.3-14-2.9
	c-4.6-0.6-9.1-1.8-13.7-2.1c-0.8,0-1,0.5-1.3,1.1c-4.3,7.9-15.5,26.9-16.9,28.4c-0.6,0.6-3.1,1.8-3.6,1.8"/>
<path class="st26" d="M348,98.4c1.4-1.1,2.3-1.2,3.1,0.9c2.4,5.8,5,11.6,7.6,17.3c1.6,3.5,3.4,7,5.1,10.5c1,2.1,1.2,4.4,2.4,6.4
	c0.3,0.5-0.5,0.2-0.7,0.4c-1.5-0.1-2.2-1.2-2.7-2.3c-4.5-10.2-9.7-20.2-13.9-30.6C348.6,100.1,348.3,99.3,348,98.4z"/>
<path class="st27" d="M43.2,217.4c3.1-0.2,6.6,0.2,10.1,1.1c1.3,0.3,2.5,0.8,3.6,1.5c3.2,2.1,5.4,4.8,5,8.9c-0.5,4.7-3,7.9-7.2,9.8
	c-1.8,0.8-3.8,1.3-5.8,1.3c-4.1,0.1-8.2,0.9-12.3,0.2c-1.3-0.2-1.6-0.9-1.6-2.1c0.2-5.2,0.3-10.3,0.4-15.5c0.1-5.6-0.4-5.2,5.3-5.2
	C41.5,217.4,42.1,217.4,43.2,217.4z"/>
<path class="st28" d="M35.9,194.3c0.2-5.9,0.5-11.9,0.7-17.8c0-1.3,0.4-1.9,1.9-2.1c5.4-0.5,10.5-0.3,15.2,2.8
	c7,4.7,6.5,14.7-1,18.7c-4.8,2.6-10,2.5-15.2,2.4c-1.1,0-1.8-0.7-1.7-2C35.9,195.6,35.9,195,35.9,194.3
	C35.9,194.3,35.9,194.3,35.9,194.3z"/>
<path class="st29" d="M102,111.8c-1.5-0.6-1.4-1.9-1.5-3.1c-0.6-7.9-0.3-15.9-0.4-23.8c0-2.1,0.8-2.7,2.9-3c6-0.6,12-0.3,18-0.3
	c3,0,5.9,0.8,8.6,2.2c1.3,0.3,2.3,1.1,2.9,2.1c2.2,3.7,3,7.5,1.5,11.7c-2.4,6.8-7.1,11-13.9,13C114.2,112.4,108.1,112.6,102,111.8z"
	/>
<path class="st30" d="M103.4,60.7c-1.8-0.6-2.2-2-2.2-3.7c0-6.9,0-13.8,0-20.6c0-1.8,1.1-2.9,2.7-3.4c1.5-0.4,3-0.9,4.5-0.9
	c4.2-0.1,8.4-0.5,12.6,0.2c2.9,0.3,5.1,1.7,6.8,4c3.7,5.2,3.2,14.5-2.8,19.3c-2.5,2-5.2,3.3-8.3,4.1C112.4,60.9,108,61.5,103.4,60.7
	z"/>
<path class="st24" d="M102,111.8c3.8,0,7.6,0,11.3-0.3c9.1-0.8,17.1-4.9,20.3-13.9c1.6-4.5-0.1-11.8-4-13.8c1.9-0.2,3.5,1.1,4.3,2.2
	c5.6,7.3,5.2,18.2-4.4,24c-4.6,2.7-9.7,3.9-15,4.1"/>
<path class="st24" d="M103.4,60.7c5.4,0.3,10.6-0.4,15.7-2.2c10.7-3.8,12.9-14.6,8.3-21.8c-1.5-2.4-3.8-3.7-6.4-4.4
	c1.1-0.9,1.8,0.2,2.7,0.4c5.2,1.4,8,5.2,9.1,10c1.5,6.5-0.4,11.1-5.4,15.3c-4.1,3.5-9,4.8-14,5.1"/>
<path class="st29" d="M220.7,99.9c-6.5-4.3-8.6-11.1-9.6-18.1c-1.5-10.6-0.7-21.1,3.7-31c2.6-5.9,7-10.2,13.3-11.9
	c6.6-1.7,12.9-0.7,18.5,3.5c2.7,1.3,4.4,3.7,5.6,6.4c1.8,4.1,2.4,8.5,2.7,12.9c0.2,5,0.3,10.1-0.7,15c-2,9.7-6.2,18.1-15.2,23.2
	c-4.5,2.6-9.4,3.5-14.6,2.3C222.8,101.8,221.6,101,220.7,99.9z"/>
<path class="st31" d="M253.7,48c1.6,2.7,2.9,4.8,3.4,8c1,6.8,1.4,13.5,0.3,20.3c-0.8,5.2-2.4,10.1-4.9,14.7
	c-2.5,4.7-6.3,8.2-10.8,11c-3.5,2.2-7.4,3.2-11.5,3c-1.3,0-2.3-0.6-3.5-1c-1.5-0.6-0.7,0-3.4-1.4c-0.9-0.4-2.5-1.6-2.7-2.8
	c6,3.7,11.9,2.6,17.7-0.4c6.4-3.4,10.5-8.8,13-15.5c4.2-11.5,4.1-23.2,0.4-34.8c-0.9-2.9-3-5-5.2-6.9c2.6,0.9,3.9,1.9,4.6,2.7"/>
<path class="st32" d="M46.5,233.8c-3.9,0.6-3.9,0.6-3.9-3.4c0-4.4,0-4.4,4.4-4.4c1.8,0,3.6,0,5.3,0.4c2.6,0.7,3.2,2,2.1,4.5
	c-0.6,0.3-1.2,0.3-1.8,0.2c-1.3-0.4-2.6-0.2-3.9-0.1c-1,0.1-1.6,0.4-1.8,1.5C46.9,232.9,46.8,233.4,46.5,233.8z"/>
<path class="st33" d="M46.5,233.8c0.1-3.1,0.1-3,3.1-3.5c1.8-0.3,3.3,0.5,4.9,0.6C52.3,233.3,49.3,233.3,46.5,233.8z"/>
<path class="st32" d="M47.1,182.7c2.9,0.1,4.4,0.9,4.8,2.6c0.4,1.6-0.8,4.1-2.7,5.3c-0.4,0.3-0.8,0.6-1.3,0.7
	c-1.3,0.4-2.8,1.3-3.9,0.5c-0.9-0.7-0.2-2.2-0.1-3.4c0-1,0.1-2,0.2-3C44.2,183,44.6,182.6,47.1,182.7z"/>
<path class="st34" d="M125.9,94.2c0.4,3.3-1.5,5.2-3.9,6.8c-2.3,1.5-4.9,2.6-7.8,2.7c-0.6-0.2-0.7-0.7-0.7-1.2
	c0-2.6-0.6-5.2-0.5-7.8c0.1-1.3,0.6-2.1,2-2.1c2.9,0,5.8-0.2,8.7,0.4C124.5,93.2,125.3,93.4,125.9,94.2z"/>
<path class="st35" d="M125.9,94.2c-3.7-1.4-7.5-1-11.3-1.1c-0.9,0-1,0.4-1,1.1c0.1,3.1,0.3,6.3,0.6,9.4c-2.8,0.7-3.2,0.3-3.7-2.3
	c-0.6-3.6-0.2-7.2-0.3-10.8c0-0.6,0-1.2,0.8-1.1c3.5,0.1,7.1-0.6,10.5,0.6C123.6,90.7,125.6,91.6,125.9,94.2z"/>
<path class="st36" d="M114.6,52.2c-2.9,1.4-4,0.8-4-2.3c0-2.6,0-5.2,0-7.8c0-0.9,0.3-1.3,1.2-1.4c2.6-0.3,5.2-0.3,7.8,0.3
	c2.4,0.5,3.6,2.4,2.9,4.2c-1,0.6-2.1,0-3.1-0.1c-4.5-0.8-5.1-0.3-4.9,4.3C114.5,50.3,114.9,51.3,114.6,52.2z"/>
<path class="st37" d="M114.6,52.2c-1-2.3-0.5-4.6-0.5-7c0-0.9,0.9-0.9,1.6-0.9c2.3-0.2,4.6,0.1,6.8,0.8
	C121.3,49.1,118.2,51.1,114.6,52.2z"/>
<path class="st34" d="M242.3,49.9c4.4,6.3,4.5,13.5,3.9,20.8c-0.4,4.8-1.5,9.4-3.5,13.7c-1.6,3.5-3.6,6.8-7.1,8.8
	c-2.9,1.7-5.8,1.9-8.8,0.3c-2-0.9-2.4-2.9-3-4.7c-1.7-5.4-1.9-11-1.5-16.6c0.3-4.1,1.1-8.1,2.5-12c1.1-3,2.6-5.8,4.9-8.1
	c3-3,6.6-4,10.7-3.5C241.1,48.8,241.7,49.3,242.3,49.9z"/>
<path class="st38" d="M242.3,49.9c-3.3-1.9-9.3-0.6-12.2,2.3c-3.6,3.7-5.2,8.2-6.3,13c-1.7,7.3-1.6,14.6,0,21.9
	c0.5,2.3,1.4,4.5,2.9,6.3c-2.6-0.4-4-2.4-5.2-4.4c-1.8-3-2.5-6.4-2.6-9.8c-0.3-8.1-0.1-16.1,3-23.8c1.3-3.2,3.3-5.8,5.9-8
	C232.7,43.3,239.9,44.6,242.3,49.9z"/>
</svg>
